<svg xmlns="http://www.w3.org/2000/svg" width="87" height="100" viewBox="0 0 87 100">
  <g fill="none" fill-rule="evenodd">
    <path fill="#FF5C5C" d="M28.8429861,78.1893403 L19.9656713,78.1893403 C19.2113889,78.1893403 18.5999306,77.5778819 18.5999306,76.8235995 L18.5999306,72.0435069 C18.5999306,71.2892245 19.2113889,70.6777662 19.9656713,70.6777662 L28.8429861,70.6777662 C29.5972685,70.6777662 30.2087269,71.2892245 30.2087269,72.0435069 L30.2087269,76.8235995 C30.2087269,77.5778819 29.5972685,78.1893403 28.8429861,78.1893403"/>
    <path fill="#4F5D7F" d="M67.1975926,97.5011458 C53.4884491,103.796748 37.2714352,97.786794 30.9759491,84.0776505 C24.6803472,70.3685069 30.6903009,54.1514931 44.3994444,47.8560069 C58.108588,41.5605208 74.3256019,47.5704745 80.621088,61.2795023 C86.9166898,74.9886458 80.9067361,91.205544 67.1975926,97.5011458"/>
    <path fill="#9CB8FF" d="M59.8794213,43.0218403 C57.7629861,40.1433681 54.3541898,38.2665162 50.5283796,38.2665162 L42.3181944,38.2665162 L41.3868287,38.2665162 L36.1033796,38.2665162 L36.1033796,63.4146644 L41.3868287,63.4146644 L62.1297685,63.4146644 L62.1297685,49.8677894 C62.1297685,47.313044 61.2927315,44.9440625 59.8794213,43.0218403"/>
    <path fill="#80A7FF" d="M39.0228819,38.2665278 L32.0358449,38.2665278 C29.0312153,38.2665278 26.5728819,40.7248611 26.5728819,43.7294907 L26.5728819,55.5422222 C26.5728819,58.5593519 29.0187153,61.0050694 32.0358449,61.0050694 L39.0228819,61.0050694 L39.0228819,38.2665278 Z"/>
    <polygon fill="#000000" points="28.016 69.995 63.078 69.995 63.078 50.371 28.016 50.371"/>
    <path fill="#B7C2CE" d="M41.2884491,80.9208333 L24.8995602,80.9208333 C22.636713,80.9208333 20.802338,79.0864583 20.802338,76.8236111 L20.802338,68.6291667 L41.2884491,73.4092593 L41.2884491,80.9208333 Z"/>
    <path fill="#7687B2" d="M63.2061111,88.8093519 C54.2973148,92.9004398 43.7588889,88.995 39.6676852,80.0862037 C35.5765972,71.1774074 39.4821528,60.6389815 48.3909491,56.5478935 C57.2996296,52.4568056 67.8381713,56.3622454 71.9292593,65.2709259 C76.0203472,74.179838 72.1149074,84.7182639 63.2061111,88.8093519"/>
    <path fill="#FF7F14" d="M77.1643981,91.1761574 C72.9831481,91.1761574 62.9437963,80.0451389 57.3811806,72.7756944 C57.4120833,66.1430556 58.2950694,49.6515046 62.1084954,45.8326389 C62.6567593,45.2837963 63.0737731,45.2204861 63.3399769,45.2204861 C63.4942593,45.2204861 63.6610417,45.246412 63.8356944,45.2978009 C72.0008565,47.7028935 78.4027083,53.1761574 81.8624306,60.7094907 C86.2177546,70.1938657 84.819375,81.4055556 78.1209954,90.7 C77.8772454,91.0384259 77.600162,91.1761574 77.1643981,91.1761574"/>
    <path fill="#E4E9F7" d="M68.6495486,61.5685648 C68.4798727,61.5685648 68.3192245,61.4670602 68.2518634,61.3000463 L61.0198032,43.3679861 C60.7714236,42.7518981 60.1816088,42.3540972 59.5173727,42.3540972 L48.8992014,42.3540972 C48.6625116,42.3540972 48.4704977,42.1620833 48.4704977,41.9253935 C48.4704977,41.6887037 48.6625116,41.4966898 48.8992014,41.4966898 L59.5173727,41.4966898 C60.5332292,41.4966898 61.435081,42.1053704 61.8149421,43.0472685 L69.0470023,60.9793287 C69.135544,61.1988889 69.029294,61.4485417 68.8097338,61.5371991 C68.7571875,61.5584954 68.7029051,61.5685648 68.6495486,61.5685648"/>
    <path fill="#FF903E" d="M56.0147569,73.2353241 C56.0147569,73.2353241 72.0266782,47.151412 75.2659144,49.861713 C78.5050347,52.5718981 81.2097801,56.0162269 83.1032986,60.1396065 C88.0125579,70.8298843 85.6682292,82.5632176 79.2289931,91.4985185 C74.6619792,97.8359028 56.0147569,73.2353241 56.0147569,73.2353241"/>
    <path fill="#DAE2ED" d="M81.4463542,87.8639236 C80.5733218,88.2017708 79.3862847,88.2770023 77.8066551,87.6915856 C71.3920718,85.3145023 61.2756366,72.799456 58.4751736,69.2178588 C56.1478588,71.0883449 54.6479745,72.6200579 54.6489005,73.2371875 L54.6498264,73.6952894 L54.926331,74.0602199 C55.441956,74.740544 67.6384838,90.7500347 74.9817708,93.4714468 C78.0779514,94.6189005 79.6659144,93.228044 80.3370949,92.2969097 C82.2715856,89.612419 82.2844329,87.5396181 81.4463542,87.8639236"/>
    <path fill="#000000" d="M30.3168981,62.3212153 L24.3489583,62.3212153 L24.3489583,45.9323264 C24.3489583,44.8009606 25.2662037,43.8837153 26.3975694,43.8837153 L28.268287,43.8837153 C29.3996528,43.8837153 30.3168981,44.8009606 30.3168981,45.9323264 L30.3168981,62.3212153 Z"/>
    <polygon fill="#C5CEDD" points="35.603 76.151 25.715 70.528 28.929 64.878 38.816 70.501"/>
    <path fill="#DAE2ED" d="M26.3789468,72.9139815 L1.0853125,61.1242824 C0.596655093,60.8965046 0.245844907,60.4455787 0.166678241,59.9123611 C-0.00519675926,58.7537963 0.051400463,56.4893287 1.89688657,53.2440741 C3.74248843,49.9988194 5.65961806,48.7924537 6.74318287,48.3478935 C7.24202546,48.1432639 7.80880787,48.2143287 8.25440972,48.5178009 L31.3182986,64.2284491 C32.0179514,64.7049537 32.2345023,65.6388657 31.8160995,66.3746296 L28.4779051,72.2444213 C28.0595023,72.9803009 27.1461921,73.2716204 26.3789468,72.9139815"/>
    <path fill="#D0D9EA" d="M44.6871991 83.1863194L33.3871991 76.760162C32.9971528 76.5384028 32.8608102 76.042338 33.0825694 75.6522917L37.0988889 68.5897917C37.3207639 68.1997454 37.8168287 68.063287 38.206875 68.285162L49.506875 74.7113194 44.6871991 83.1863194zM15.0983449 55.1436574C15.8784375 55.5872917 16.1512384 56.5793056 15.7076042 57.3593981 15.2639699 58.1394907 14.2718403 58.4122917 13.4917477 57.9686574M22.4759375 61.8930093C22.0323032 62.6731019 21.0402894 62.9459028 20.260081 62.5022685 19.4799884 62.0586343 19.2073032 61.0666204 19.6509375 60.2865278"/>
    <polygon fill="#D0D9EA" points="35.5 68.727 25.612 63.104 28.826 57.454 38.713 63.077"/>
    <path fill="#EBEFF7" d="M26.2759491,65.4897917 L0.982314815,53.7000926 C0.493657407,53.4723148 0.142847222,53.0213889 0.0636805556,52.4881713 C-0.108194444,51.3296065 -0.0515972222,49.0651389 1.79388889,45.8198843 C3.63949074,42.5746296 5.55673611,41.3682639 6.64018519,40.9238194 C7.13902778,40.7190741 7.70581019,40.7901389 8.15141204,41.0936111 L31.2153009,56.8042593 C31.9149537,57.2807639 32.1315046,58.2146759 31.7131019,58.9504398 L28.3749074,64.8202315 C27.9565046,65.5561111 27.0431944,65.8474306 26.2759491,65.4897917"/>
    <path fill="#DAE2ED" d="M44.5842361,75.7621181 L33.2842361,69.3359606 C32.8941898,69.1142014 32.7577315,68.6181366 32.9796065,68.2280903 L36.9959259,61.1655903 C37.2178009,60.775544 37.71375,60.6390856 38.1037963,60.8609606 L49.403912,67.2871181 L44.5842361,75.7621181 Z"/>
    <path fill="#B7C2CE" d="M26.6962384 57.4788657C26.4166088 57.9705324 25.7913773 58.1424074 25.2997106 57.8627778 24.808044 57.5831481 24.636169 56.9580324 24.9156829 56.46625 25.1953125 55.9745833 25.820544 55.8027083 26.3122106 56.082338 26.8038773 56.3619676 26.9758681 56.9871991 26.6962384 57.4788657M21.8506713 54.1718403C21.5710417 54.6635069 20.9458102 54.8353819 20.4541435 54.5557523 19.9624769 54.2762384 19.7906019 53.6510069 20.0702315 53.1592245 20.3497454 52.6675579 20.9750926 52.4956829 21.4666435 52.7753125 21.9583102 53.0549421 22.1303009 53.6801736 21.8506713 54.1718403"/>
    <path fill="#EBEFF7" d="M62.0665046,86.3277083 C54.5283102,89.7893981 45.6110648,86.4847685 42.149375,78.9465741 C38.6876852,71.4083796 41.9923148,62.49125 49.5305093,59.0295602 C57.0687037,55.5677546 65.9859491,58.8725 69.4476389,66.4105787 C72.9093287,73.9487731 69.6046991,82.8660185 62.0665046,86.3277083"/>
    <path fill="#DAE2ED" d="M61.0693171,84.1562616 C54.7303125,87.0671412 47.2318171,84.2883218 44.3208218,77.9494329 C41.4099421,71.6104282 44.1887616,64.1119329 50.5276505,61.2009375 C56.8666551,58.2899421 64.3652662,61.0688773 67.2761458,67.4077662 C70.1871412,73.7467708 67.4083218,81.2452662 61.0693171,84.1562616"/>
    <path fill="#80A7FF" d="M51.016713,40.5946181 L42.3050231,40.5946181 C40.8694907,40.5946181 39.7057176,39.4309606 39.7057176,37.9954282 L34.2265509,37.9954282 L34.2265509,50.2883681 L39.6643981,50.2883681 C40.1678704,47.4292245 42.6581481,45.254919 45.6617361,45.254919 L50.9147454,45.254919 C52.0418287,45.254919 53.0808333,44.4998264 53.3002778,43.3942708 C53.5949537,41.9095486 52.4518981,40.5946181 51.016713,40.5946181"/>
    <path fill="#80A7FF" d="M30.1882176,38.3237153 L52.6286111,38.3237153 C56.6308102,38.3237153 59.905463,35.0491782 59.905463,31.0468634 L59.905463,17.5815856 C59.905463,13.5792708 56.6308102,10.3047338 52.6286111,10.3047338 L30.1882176,10.3047338 C26.1860185,10.3047338 22.9113657,13.5792708 22.9113657,17.5815856 L22.9113657,31.0468634 C22.9113657,35.0491782 26.1860185,38.3237153 30.1882176,38.3237153"/>
    <path fill="#9CB8FF" d="M34.9147106,38.3237153 L57.3549884,38.3237153 C61.3573032,38.3237153 64.6318403,35.0491782 64.6318403,31.0468634 L64.6318403,17.5814699 C64.6318403,13.5792708 61.3573032,10.3047338 57.3551042,10.3047338 L34.9147106,10.3047338 C30.9123958,10.3047338 27.6378588,13.5792708 27.6378588,17.5814699 L27.6378588,31.0468634 C27.6378588,35.0491782 30.9123958,38.3237153 34.9147106,38.3237153"/>
    <path fill="#9CB8FF" d="M25.0952315,29.3884028 L30.4505556,29.3884028 L30.4505556,16.2901389 L25.0952315,16.2901389 C22.4159491,16.2901389 20.2439583,18.4621296 20.2439583,21.141412 L20.2439583,24.5371296 C20.2439583,27.216412 22.4159491,29.3884028 25.0952315,29.3884028"/>
    <path fill="#80A7FF" d="M30.4505556,26.4776968 L30.4505556,19.2008449 C30.4505556,18.9329051 30.2333102,18.7157755 29.9654861,18.7157755 L25.0953472,18.7157755 C23.7556481,18.7157755 22.6696528,19.8017708 22.6696528,21.1413542 L22.6696528,24.5371875 C22.6696528,25.8768866 23.7556481,26.9627662 25.0953472,26.9627662 L29.9654861,26.9627662 C30.2333102,26.9627662 30.4505556,26.7456366 30.4505556,26.4776968"/>
    <path fill="#000000" d="M38.8893981,25.1374653 C40.2066435,25.1374653 41.2843056,24.0596875 41.2843056,22.7425579 C41.2843056,21.4254282 40.2066435,20.3476505 38.8893981,20.3476505 C37.5722685,20.3476505 36.4944907,21.4254282 36.4944907,22.7425579 C36.4944907,24.0596875 37.5722685,25.1374653 38.8893981,25.1374653"/>
    <path fill="#B8D0FF" d="M64.8314583,17.5814931 L61.9206944,17.5814931 L51.7331944,17.5814931 L48.3372454,17.5814931 C46.7364352,17.5814931 45.4264815,18.891331 45.4264815,20.4921412 L45.4264815,23.8880903 C45.4264815,27.8902894 48.7011343,31.1648264 52.7033333,31.1648264 L56.0992824,31.1648264 L57.5546065,31.1648264 L60.4653704,31.1648264 C64.4675694,31.1648264 67.7422222,27.8902894 67.7422222,23.8880903 L67.7422222,20.4921412 C67.7422222,18.891331 66.4323843,17.5814931 64.8314583,17.5814931"/>
    <path fill="#CBDAF7" d="M56.0992477,31.1648611 L60.4653356,31.1648611 C64.4676505,31.1648611 67.7421875,27.8903241 67.7421875,23.8880093 L67.7421875,20.4922917 C67.7421875,18.8913657 66.4323495,17.5815278 64.8314236,17.5815278 L51.7331597,17.5815278 C50.1322338,17.5815278 48.8223958,18.8913657 48.8223958,20.4922917 L48.8223958,23.8880093 C48.8223958,27.8903241 52.0969329,31.1648611 56.0992477,31.1648611"/>
    <path fill="#9CB8FF" d="M58.0572338 25.6748032L56.8443866 25.6748032 56.1167245 25.6748032 54.9038773 25.6748032C54.2368634 25.6748032 53.6911458 26.2205208 53.6911458 26.8876505 53.6911458 27.5546644 54.2368634 28.1004977 54.9038773 28.1004977L56.1167245 28.1004977 56.8443866 28.1004977 58.0572338 28.1004977C58.7242477 28.1004977 59.270081 27.5546644 59.270081 26.8876505 59.270081 26.2205208 58.7242477 25.6748032 58.0572338 25.6748032M63.7574074 25.6748032L63.0297454 25.6748032 63.272338 25.6748032 62.5445602 25.6748032C61.8775463 25.6748032 61.3318287 26.2205208 61.3318287 26.8876505 61.3318287 27.5546644 61.8775463 28.1004977 62.5445602 28.1004977L63.272338 28.1004977 63.0297454 28.1004977 63.7574074 28.1004977C64.4244213 28.1004977 64.9702546 27.5546644 64.9702546 26.8876505 64.9702546 26.2205208 64.4244213 25.6748032 63.7574074 25.6748032"/>
    <path fill="#80A7FF" d="M56.7260995,34.0476389 L58.666956,34.0476389 C59.1125579,34.0476389 59.4740162,33.686412 59.4740162,33.2405787 C59.4740162,32.7947454 59.1125579,32.4335185 58.666956,32.4335185 L56.7260995,32.4335185 C56.2804977,32.4335185 55.9190394,32.7947454 55.9190394,33.2405787 C55.9190394,33.686412 56.2804977,34.0476389 56.7260995,34.0476389"/>
    <path fill="#FF7F14" d="M23.28875,36.2264815 C22.9181481,36.2264815 22.6178009,35.9260185 22.6178009,35.5555324 C22.6178009,35.1849306 22.9181481,34.8845833 23.28875,34.8845833 C23.6592361,34.8845833 23.9596991,35.1849306 23.9596991,35.5555324 C23.9596991,35.9260185 23.6592361,36.2264815 23.28875,36.2264815 Z M23.28875,39.8049537 C22.9181481,39.8049537 22.6178009,39.5046065 22.6178009,39.1340046 C22.6178009,38.7634028 22.9181481,38.4630556 23.28875,38.4630556 C23.6592361,38.4630556 23.9596991,38.7634028 23.9596991,39.1340046 C23.9596991,39.5046065 23.6592361,39.8049537 23.28875,39.8049537 Z M23.28875,23.4644444 L20.5353935,25.3983565 L20.5353935,41.1063426 L23.28875,43.0403704 L26.0421065,41.1063426 L26.0421065,25.3983565 L23.28875,23.4644444 Z"/>
    <path fill="#D0D9EA" d="M42.4815741,2.39148148 C42.4815741,2.39148148 33.72625,21.8054861 32.0131713,26.1831481 C29.5532176,32.4697222 19.0705787,31.7028241 19.0705787,22.7571065 L42.4815741,2.39148148 Z"/>
    <path fill="#EBEFF7" d="M62.8472454,10.0048264 C62.8472454,10.0048264 56.7565046,1.24950231 40.7685417,1.24950231 C24.7805787,1.24950231 17.3575463,12.6694097 17.3575463,21.6151273 C17.3575463,30.5608449 27.8401852,31.3277431 30.3001389,25.041169 C32.0132176,20.6635069 35.058588,13.8115394 35.058588,13.8115394 L62.8472454,10.0048264 Z"/>
    <path fill="#FF903E" d="M56.1856019,9.053125 C56.1856019,9.053125 52.949838,2.39143519 41.5299306,0.868865741 L33.9165046,1.24953704 C33.9165046,1.24953704 46.0978704,0.678472222 51.9982176,9.24351852 L56.1856019,9.053125 Z"/>
    <path fill="#000000" d="M35.0585417,13.8114931 L73.1253241,13.8114931 C73.1253241,13.8114931 67.2249769,8.67248843 54.2822685,8.86288194 C41.3395602,9.05315972 35.0585417,13.8114931 35.0585417,13.8114931"/>
    <path fill="#7687B2" d="M27.7915972,21.1267245 C27.4253935,24.1001042 25.0986574,26.2605208 22.5947222,25.9520718 C20.090787,25.6437384 18.3579167,22.9833218 18.7241204,20.0099421 C19.0903241,17.0365625 21.4170602,14.8761458 23.9209954,15.1844792 C26.4249306,15.4929282 28.1578009,18.1533449 27.7915972,21.1267245"/>
    <path fill="#FFFFFF" d="M25.9081829,20.9650926 C25.6479977,23.0777083 23.9947569,24.6127778 22.215706,24.3936806 C20.4366551,24.1744676 19.2052894,22.2841898 19.4654745,20.1715741 C19.7257755,18.0589583 21.3789005,16.5238889 23.1580671,16.7429861 C24.9371181,16.9621991 26.1683681,18.8524769 25.9081829,20.9650926"/>
    <path fill="#FF903E" d="M24.8819444,20.8524653 C24.6956019,22.3654282 23.5116898,23.4647338 22.2376157,23.3077894 C20.9634259,23.1508449 20.0815972,21.7971412 20.2679398,20.2841782 C20.4543981,18.7712153 21.6383102,17.6719097 22.9123843,17.8287384 C24.1864583,17.9856829 25.068287,19.3395023 24.8819444,20.8524653"/>
    <path fill="#FFFFFF" d="M33.2219213,5.68138889 C33.4834954,6.19701389 33.2397454,6.8462037 32.6772454,7.13162037 C32.1148611,7.41715278 31.4468056,7.23046296 31.1851157,6.7149537 C30.9235417,6.1993287 31.1674074,5.55002315 31.7297917,5.26460648 C32.2922917,4.97918981 32.9603472,5.16576389 33.2219213,5.68138889"/>
    <path fill="#C5CEDD" d="M61.2527083,65.203831 L65.2442593,72.1174884 C65.4882407,72.5400579 65.4882407,73.0606597 65.2442593,73.4832292 L61.2527083,80.3967708 C61.0088426,80.8193403 60.5579167,81.0796412 60.0699537,81.0796412 L52.0868519,81.0796412 C51.5988889,81.0796412 51.147963,80.8193403 50.9039815,80.3967708 L46.9124306,73.4832292 C46.6684491,73.0606597 46.6684491,72.5400579 46.9124306,72.1174884 L50.9039815,65.203831 C51.147963,64.7812616 51.5988889,64.5209606 52.0868519,64.5209606 L60.0699537,64.5209606 C60.5579167,64.5209606 61.0088426,64.7812616 61.2527083,65.203831"/>
    <path fill="#EBEFF7" d="M57.6251852,76.6562847 C55.4283102,77.665081 52.8295833,76.7021181 51.820787,74.5052431 C50.8119907,72.3084838 51.7750694,69.7096412 53.9719444,68.7008449 C56.1687037,67.6920486 58.7674306,68.6551273 59.7762269,70.8520023 C60.7850231,73.0487616 59.8219444,75.6474884 57.6251852,76.6562847"/>
  </g>
</svg>
